<svg viewBox="0 0 80 90" width="100" xmlns="http://www.w3.org/2000/svg"><g fill="#17030" transform="translate(0 5)"><path d="m55.6054453 42.4186046h-43.1288892v-37.09395344c0-1.08948837.9896205-1.97581395 2.2058715-1.97581395h52.7844335c1.2173303 0 2.2069508.88632558 2.2069508 1.97581395v2.48930232h2.632153.6054275v-2.48930232c0-2.93581395-2.4422149-5.32465116-5.4445313-5.32465116h-52.7844335c-3.0012371 0-5.443452 2.38883721-5.443452 5.32465116v37.09395344h-6.54099184c-1.49036623 0-2.69798376 1.2491163-2.69798376 2.7906978 0 1.5415813 1.20761753 2.7906976 2.69798376 2.7906976h6.54099184 3.2375805 45.7113993c-1.4763367-1.412093-2.4411357-3.3789767-2.5825101-5.5813954"/><path d="m76.8101266 41.9846534c0 1.5412354-1.1919494 2.7941177-2.6582278 2.7941177h-9.5696203c-1.4662785 0-2.6582278-1.2528823-2.6582278-2.7941177v-25.7058824c0-1.4439999 1.0526582-2.6231176 2.392405-2.7661764v.8762353c0 .4917647.1105823.8605883.387038 1.2294117.2753924.3699413.6613671.4928825 1.1036962.4928825h7.1208608c.4412658 0 .8272404-.1844119 1.1036962-.4928825.2753923-.3062352.3859746-.737647.3859746-1.2294117v-.8762353c1.3397469.1430588 2.3924051 1.3221765 2.3924051 2.7661764zm-2.6582278-31.8529411h-9.5696203c-3.2238988 0-5.8481013 2.7583529-5.8481013 6.1470587v25.7058824c0 3.3898236 2.6242025 6.1470589 5.8481013 6.1470589h9.5696203c3.2238986 0 5.8481012-2.7572353 5.8481012-6.1470589v-25.7058824c0-3.3887058-2.6242026-6.1470587-5.8481012-6.1470587z"/><path d="m73.7549197 41.9895341c-.1329646-.2165197-.3329433-.3647887-.574407-.4142117-.0531858-.0105907-.1031805-.0353021-.1606212-.0353021h-3.0305286-5.2877354c-.3106053 0-.5722796.1847478-.7350282.4495138-.0872247.1412086-.1446655.304775-.1584938.484816-.0021274.0235348-.0106371.0423625-.0106371.0658972v.0235348.0023535c0 .5530668.405276 1.0002272.9041591 1.0002272h5.2877354 3.0305286c.0574407 0 .1074354-.0247116.1606212-.0353022.206361-.0435394.3850654-.1506224.5169663-.3200727.1361558-.1741571.2265717-.3953839.2265717-.6448523v-.0258883c0-.0235347-.0085098-.0423624-.0106373-.0658972-.0138283-.180041-.0712689-.3436074-.1584937-.484816"/></g></svg>